<?xml version="1.0" encoding="UTF-8" standalone="no"?>
<svg xmlns:rdf="http://www.w3.org/1999/02/22-rdf-syntax-ns#" xmlns="http://www.w3.org/2000/svg" xml:space="preserve" height="184.46" viewBox="0 0 192.90837 184.46124" width="192.91" version="1.1" xmlns:cc="http://creativecommons.org/ns#" xmlns:dc="http://purl.org/dc/elements/1.1/"><g transform="matrix(1.25 0 0 -1.25 -286.54 588.17)"><g><path d="m375.13 415.06c0.48119 3.1172 0.68382 7.8848 0.69784 8.3876l0.0216 0.539c0.003 0.1022-0.059 0.25578-0.14599 0.30367 0 0-1.095 0.7136-1.951 1.151-15.322 8.0197-31.981 12.608-44.863 14.494v24.384h-2.7528c-1.9335-1.3788-5.762-3.3917-9.9637-2.0159-5.5273 1.7998-7.1437 5.4362-8.335 7.4625h-2.9035c-1.196-2.0264-2.8118-5.6627-8.3356-7.4625-4.2058-1.3758-8.0331 0.63712-9.9672 2.0159h-2.7534v-24.384c-11.464-1.6877-29.587-6.315-44.859-14.494-0.85026-0.45842-1.947-1.151-1.947-1.151-0.0888-0.0479-0.1565-0.20147-0.14658-0.30367l0.0152-0.539c0.0204-0.5028 0.21899-5.2703 0.7066-8.3876h-7.643v-49.767s28.894-3.2772 31.524-3.54c6.4184-7.9431 18.721-23.68 42.174-36.551l2.6746-1.4296s2.6874 1.4296 2.6944 1.4296c23.453 12.871 35.753 28.608 42.175 36.551 2.632 0.26278 31.52 3.54 31.52 3.54v49.767h-7.6366" fill="#fff"/><path d="m280.27 432.58c-10.957-2.0976-23.744-5.8106-36.158-11.98l-0.20313-0.0984 3.0281-1.6594c11.111 5.2838 23.43 8.9177 33.333 10.883v2.8547zm52.223 0v-2.8547c9.903-1.9651 22.221-5.5991 33.336-10.883l3.025 1.6594-0.20625 0.0984c-12.402 6.169-25.198 9.8821-36.155 11.98zm-64.55-68.14c2.6676-3.9266 22.714-25.678 37.261-32.323l1.1688-0.48438v3.0578c-13.4 6.4377-29.72 23.693-34.609 29.467l-3.8203 0.28282z" fill="#d6d8d3"/><path d="m306.37 466.33s-2.6641-5.1392-9.5234-6.8531c-5.8847-1.4698-10.061 1.7812-10.061 1.7812v-34.105c0.00096-1.1597 0.48603-6.081 9.6672-7.4078 3.6253-0.5244 6.3329-1.6903 8.2781-3.5625 0.7002-0.67097 1.232-1.355 1.6391-1.9828 0.40877 0.62777 0.9385 1.3118 1.6375 1.9828 1.9481 1.8722 4.6572 3.0381 8.2812 3.5625 9.1812 1.3268 9.6649 6.2481 9.6672 7.4078v34.105s-4.1786-3.2511-10.061-1.7812c-6.8587 1.714-9.525 6.8531-9.525 6.8531zm-20.933-29.269c-1.3793-0.12729-2.9149-0.3361-4.5641-0.61406-0.0123-0.002-0.0262-0.004-0.0391-0.006-11.307-1.9165-28.102-7.1802-39.277-13.023-0.8596-0.4514-1.3047-0.70938-1.3047-0.70938-0.0917-0.038-0.14392-0.1302-0.1375-0.23125l0.0453-1.4344c0.0257-0.70777 0.12043-3.661 1.1984-9.0172h-8.3328v-3.1156h146.7v3.1156h-8.3375c1.0836 5.3552 1.1722 8.3095 1.2031 9.0172l0.0515 1.4344c0.007 0.10105-0.0517 0.19174-0.13749 0.22969 0 0-0.45231 0.25721-1.3125 0.71094-11.071 5.88-29.097 11.652-41.506 13.358-0.44208 0.0736-1.1144 0.1532-1.9688 0.23438-0.13778 0.0146-0.29033 0.0382-0.42812 0.0516v-0.0125c-0.0269 0.003-0.0579 0.005-0.0859 0.008v-9.9047c-0.00051-0.8964-0.21919-2.6651-1.675-4.4328-1.7986-2.184-4.8486-3.602-9.0625-4.2094-3.3566-0.48705-5.8395-1.5414-7.5891-3.225-1.2415-1.1942-2.5078-3.3828-2.5078-3.3828s-1.2192 2.1436-2.5062 3.3828c-1.7496 1.6836-4.2328 2.738-7.5906 3.225-4.2139 0.60732-7.265 2.0253-9.0625 4.2094-1.457 1.7688-1.6738 3.5358-1.675 4.4328v9.8703c-0.0327-0.004-0.0657-0.005-0.0984-0.008v0.0469zm-5.1734-4.4797v-2.8547c-9.9024-1.9651-22.222-5.5991-33.333-10.883 0.11095-1.1884 0.6588-4.7753 1.1266-6.8203h-2.9031c-0.7066 3.2597-1.0748 6.529-1.2359 8.2312l-0.0156 0.24843 0.20313 0.0984c12.413 6.169 25.201 9.8821 36.158 11.98zm52.223 0c10.957-2.0976 23.752-5.8106 36.155-11.98l0.20625-0.0984-0.0141-0.24843c-0.15943-1.7023-0.52584-4.9715-1.2359-8.2312h-2.9c0.46657 2.045 1.017 5.6319 1.125 6.8203-11.115 5.2838-23.433 8.9177-33.336 10.883v2.8547zm-99.461-62.369v-2.2203l30.267-3.3719c3.8016-5.5781 20.374-25.356 41.077-36.333l1.9984-1.0766 2.0141 1.0766c20.708 10.977 37.277 30.755 41.075 36.333l30.27 3.3719v2.2203h-146.7zm34.912-5.7719 3.8203-0.28282c4.8896-5.7743 21.21-23.029 34.609-29.467 13.406 6.4377 29.737 23.693 34.633 29.467l3.8156 0.28282c-2.6722-3.9266-22.707-25.678-37.262-32.323l-1.1859-0.48438-1.1688 0.48438c-14.55 6.6456-34.593 28.397-37.261 32.323z" fill="#013369"/><path d="m233.03 373.34h146.7v32.438h-146.7v-32.438z" fill="#0080c5"/><path d="m100.96 13.248c-6.273 0.082-12.051 4.765-10.962 12.777 0.118 0.85 0.447 2.395 0.867 3.073 0.14-1.334 0.64-4.285 2.127-7.446-0.516-0.185-0.945-0.261-0.945-0.261 0.152-0.319 0.363-0.725 0.363-0.725 1.1 0.207 2.072 0.668 2.914 1.334-0.203 0.326-0.34 0.539-0.435 0.707-0.297-0.232-0.594-0.431-0.922-0.613-1.671 2.921-2.446 5.679-2.76 7.125 0.017 0.089 0.198 0.137 0.344 0.117 6.873-0.89 10.089-4.395 11.069-8.193 0.65-2.493 0.43-5.1-0.43-7.225-0.06-0.15-0.18-0.396-0.38-0.379 0 0-1.01 0.527-2.421 1.916 0.319 0.181 0.681 0.43 0.881 0.602-0.21 0.189-0.433 0.394-0.633 0.586-0.921-0.758-1.876-1.142-2.619-1.323 0.246-0.176 0.509-0.351 0.767-0.519 0.401 0.102 0.783 0.258 0.783 0.258 1.592-1.214 2.972-1.737 2.972-1.737s-0.16-0.079-0.58-0.074zm-23.79 2.695l-0.787 2.264h-2.389l1.953 1.469-0.718 2.299 1.941-1.366 1.943 1.366-0.718-2.297 1.953-1.471h-2.389l-0.789-2.264zm8.48 0l-0.789 2.264h-2.388l1.955 1.469-0.719 2.299 1.941-1.366 1.942 1.366-0.719-2.297 1.953-1.471h-2.387l-0.789-2.264zm21.56 0l-0.79 2.264h-2.39l1.96 1.469-0.72 2.299 1.94-1.366 1.94 1.366-0.72-2.299 1.96-1.469h-2.39l-0.79-2.264zm8.48 0l-0.79 2.264h-2.39l1.96 1.469-0.72 2.299 1.94-1.366 1.94 1.366-0.72-2.299 1.96-1.469h-2.39l-0.79-2.264zm-38.52 7.653l-0.787 2.263h-2.389l1.953 1.469-0.718 2.297 1.941-1.363 1.943 1.363-0.718-2.295 1.953-1.471h-2.389l-0.789-2.263zm8.48 0l-0.789 2.263h-2.388l1.955 1.469-0.719 2.297 1.941-1.363 1.942 1.363-0.719-2.295 1.953-1.471h-2.387l-0.789-2.263zm21.56 0l-0.79 2.263h-2.39l1.96 1.469-0.72 2.297 1.94-1.363 1.94 1.363-0.72-2.297 1.96-1.469h-2.39l-0.79-2.263zm8.48 0l-0.79 2.263h-2.39l1.96 1.469-0.72 2.297 1.94-1.363 1.94 1.363-0.72-2.297 1.96-1.469h-2.39l-0.79-2.263zm-40.866 8.3v22.327c0 0.234-0.292 4.89 9.621 6.42 8.655 1.335 11.985 5.441 11.985 5.441s3.332-4.106 11.99-5.441c9.91-1.53 9.62-6.185 9.62-6.42v-22.327h-43.216zm-56.32 55.829v4.775l2.223 0.582v16.218l-2.907 0.64v4.78h12.992c2.675 0 6.886-0.51 9.483-2.83 2.604-2.41 2.832-5 2.832-10.68 0-5.687-0.191-7.932-2.877-10.382-2.63-2.372-6.492-3.103-9.469-3.103h-12.277zm32.457 0v4.818l2.215 0.539v16.218l-2.637 0.64v4.78h12.045v-4.78l-2.604-0.64v-5.37h3.323l3.408 5.55-1.611 0.46v4.78h11.548v-4.78l-2.337-0.39-4.166-6.18c3.4-1.18 4.822-4.099 4.822-6.85v-1.487c0-3.439-2.258-7.308-7.684-7.308h-16.322zm41.814 0l-7.724 21.575-2.254 0.64v4.78h10.207v-4.78l-1.527-0.64 0.494-1.78h8.899l0.51 1.78-1.571 0.64v4.78h10.551v-4.78l-2.33-0.64-7.54-21.575h-7.715zm24.765 0v4.775l2.1 0.582v16.218l-2.52 0.64v4.78h11.7v-4.78l-2.48-0.64v-5.33h3.63l0.91 1.31h3.87v-7.423h-3.87l-0.95 1.303h-3.59v-6.078h6.72l0.92 2.785h5.5v-8.142h-21.94zm30.09 0v8.613h5.27l0.57-3.256h4.32v16.218l-2.52 0.64v4.78h11.69v-4.78l-2.47-0.64v-16.218h4.31l0.58 3.256h5.27v-8.613h-27.02zm-87.575 4.775h4.888c3.255 0 3.297 1.19 3.297 3.332-0.041 2.137-0.043 3.244-3.297 3.244h-4.925l0.037-6.576zm-32.483 0.539h2.94c3.205 0 5.315 1.499 5.426 4.287 0.151 3.214 0.114 4.324 0 7.904-0.111 3.18-2.332 4.07-5.809 4.07h-2.602l0.045-16.261zm68.762 0.988h0.225s2.217 6.283 2.447 7.083l0.42 1.49h-6.002l0.424-1.49c0.22-0.84 2.486-7.083 2.486-7.083z" transform="matrix(.8 0 0 -.8 229.23 470.54)" fill="#fff"/><path d="m290.7 443.26v-2.2031l1.2203-0.60469v-12.228l-1.1922-0.46562v-1.9156l5.2078-1.3234v2.2484l-1.1906 0.91406 0.002 7.2984 3.75-11.069 2.5953-0.77812v17.327l1.0141 0.59687v2.2031h-4.8531v-2.2031l1.0656-0.59687 0.002-8.4938-3.6797 11.294h-3.9406zm12.444 0v-2.2281l1.1328-0.57187v-15.447l-1.1391-0.46718v-1.8688l5.1578-1.9266v2.2016l-1.0391 1.2453v8.5422h1.7359l0.64844-0.93281h1.3719v4.6125h-1.3719l-0.67344-0.98437h-1.7109v5.1828h2.2797l0.59531-1.8406h1.9688v4.4828h-8.9562zm9.9938 0v-2.2281l1.0937-0.57187v-13.788l-1.2812-1.0531v-2.2016l9.1062 2.4328v5.6641h-2.1219l-0.425-3.3906-2.2203-0.6v12.936l1.0156 0.57187v2.2281h-5.1672z" fill="#d50a0a"/><path d="m306.14 457.75c-0.18042-0.15124-0.38663-0.31431-0.5875-0.50468 0.82864-0.1752 1.6102-0.54686 2.3062-1.1203 0.15535 0.17228 0.32029 0.34259 0.48906 0.51719-0.47477 0.39417-1.1718 0.85845-2.2078 1.1078zm-1.2094-1.1297c-0.1565-0.17752-0.32136-0.36955-0.46093-0.55 0.91392-0.1822 1.7206-0.59661 2.3828-1.1531 0.14076 0.18395 0.28942 0.37723 0.45 0.56875-0.78075 0.64238-1.6752 1.0106-2.3719 1.1344zm-0.95312-1.2328c-0.14308-0.21258-0.39375-0.62187-0.39375-0.62187 0.81812-0.15653 1.6524-0.52211 2.3672-1.1172 0.1238 0.18338 0.26123 0.38429 0.40781 0.59219-0.56938 0.48119-1.3809 0.94831-2.3812 1.1469z" fill="#013369"/></g></g></svg>
